<svg width="30" height="30" viewBox="0 0 30 30" fill="none" xmlns="http://www.w3.org/2000/svg">
<g id="Icon / Apple">
<path id="Vector" d="M24.0259 19.9793C23.677 20.7853 23.264 21.5273 22.7855 22.2094C22.1332 23.1393 21.5992 23.783 21.1876 24.1405C20.5497 24.7272 19.8661 25.0277 19.1341 25.0448C18.6086 25.0448 17.9749 24.8953 17.2372 24.5919C16.4971 24.29 15.817 24.1405 15.1951 24.1405C14.5428 24.1405 13.8433 24.29 13.0951 24.5919C12.3457 24.8953 11.7421 25.0533 11.2805 25.069C10.5786 25.0989 9.87894 24.7899 9.18056 24.1405C8.73482 23.7517 8.17729 23.0852 7.50939 22.1411C6.79279 21.1328 6.20364 19.9636 5.74209 18.6307C5.24779 17.1909 5 15.7967 5 14.447C5 12.9008 5.33409 11.5673 6.00327 10.4498C6.52919 9.55224 7.22885 8.84418 8.10452 8.32439C8.98019 7.8046 9.92636 7.53972 10.9453 7.52277C11.5028 7.52277 12.234 7.69523 13.1425 8.03416C14.0485 8.37423 14.6303 8.54669 14.8853 8.54669C15.076 8.54669 15.7223 8.34504 16.8178 7.94302C17.8539 7.57019 18.7282 7.41582 19.4446 7.47663C21.3856 7.63328 22.8439 8.39844 23.8137 9.77696C22.0777 10.8288 21.219 12.302 21.2361 14.1919C21.2517 15.664 21.7858 16.889 22.8353 17.8617C23.311 18.3131 23.8422 18.662 24.4332 18.9098C24.305 19.2815 24.1697 19.6375 24.0259 19.9793ZM19.5742 2.46155C19.5742 3.61536 19.1526 4.69267 18.3124 5.68982C17.2985 6.87524 16.072 7.56022 14.7421 7.45213C14.7251 7.31371 14.7153 7.16803 14.7153 7.01494C14.7153 5.90728 15.1975 4.72187 16.0538 3.75263C16.4813 3.26189 17.025 2.85385 17.6844 2.52834C18.3423 2.20769 18.9646 2.03037 19.5499 2C19.567 2.15425 19.5742 2.3085 19.5742 2.46154V2.46155Z" fill="#181602"/>
</g>
</svg>
